<?xml version="1.0" encoding="UTF-8"?>
<svg version="1.1" xmlns="http://www.w3.org/2000/svg" width="426" height="154">
<path d="M0 0 C1.3125 2.25 1.3125 2.25 1.125 4.4375 C0.3125 6.25 0.3125 6.25 -0.6875 7.25 C-4.05140338 7.5961735 -7.41094807 7.92309495 -10.78515625 8.1484375 C-14.15388833 8.4797882 -16.22198443 8.78999349 -18.66796875 11.20703125 C-20.12868296 15.56678747 -20.17750583 19.61542224 -20.125 24.1875 C-20.11525146 25.12537354 -20.10550293 26.06324707 -20.09545898 27.02954102 C-19.7304765 41.4494423 -14.83683395 51.65728551 -6.6875 63.25 C-2.81967523 68.93277946 -2.81967523 68.93277946 -1.75 71.5 C-0.22366423 74.01396479 1.57817064 74.29616418 4.3125 75.25 C5.09625 75.806875 5.88 76.36375 6.6875 76.9375 C10.40093668 78.79421834 12.32823438 78.33047881 16.3125 77.25 C20.92211481 74.9664155 24.43007057 72.57364415 27.3125 68.25 C27.9725 68.25 28.6325 68.25 29.3125 68.25 C29.68955078 67.16332031 29.68955078 67.16332031 30.07421875 66.0546875 C31.4096602 63.02993367 33.04061845 60.9336481 35.125 58.375 C45.29942131 44.36432148 45.66059247 29.00730138 44.3125 12.25 C43.8175 10.765 43.8175 10.765 43.3125 9.25 C38.99928169 7.52675202 33.8888596 7.87325641 29.30859375 7.62890625 C26.3125 7.25 26.3125 7.25 23.3125 5.25 C23.5625 2.875 23.5625 2.875 24.3125 0.25 C28.70813233 -2.60227698 33.26318819 -2.3198509 38.3125 -1.75 C42.67027244 -0.71036 46.76416331 0.48922662 49.79296875 3.93359375 C57.40014569 16.70376443 53.98884874 36.81597485 50.71484375 50.53515625 C47.93397829 60.67065168 42.73783719 69.98280339 36.3125 78.25 C35.6525 78.25 34.9925 78.25 34.3125 78.25 C34.05855469 78.85199219 33.80460937 79.45398438 33.54296875 80.07421875 C32.16189654 82.51630517 30.92678098 83.49330943 28.625 85.0625 C24.41287311 88.07336218 20.86551103 91.4971321 17.3125 95.25 C20.80149013 108.34397474 25.87216858 120.48110742 38 127.6875 C44.09816299 130.40041584 50.73760591 130.35348793 57.05859375 128.40234375 C66.78213326 124.03637091 72.48245815 115.90059834 76.5625 106.3125 C76.81 105.631875 77.0575 104.95125 77.3125 104.25 C76.4153125 103.940625 76.4153125 103.940625 75.5 103.625 C72.37508251 101.66076615 71.60546124 99.67634728 70.3125 96.25 C69.91445196 91.71225233 70.13464139 88.27903842 72.3125 84.25 C75.07739662 81.03915231 77.05962279 79.51176288 81.36328125 79.01171875 C86.86025239 78.83133455 90.0670588 79.40888653 94.3125 83.25 C97.2349897 87.63373454 97.872024 91.02777599 97.3125 96.25 C96.32742897 99.32834696 95.57665951 101.5496675 92.6484375 103.171875 C92.00132812 103.48640625 91.35421875 103.8009375 90.6875 104.125 C86.0150262 106.73508152 84.21919482 110.47569617 81.8125 115.0625 C76.46188248 125.24419065 69.81296866 133.19727149 58.5625 137 C48.14862233 139.79358865 39.9156308 138.15528409 30.3125 133.25 C27.34881173 131.17941719 24.63389659 129.03427325 22.3125 126.25 C22.3125 125.59 22.3125 124.93 22.3125 124.25 C21.6525 124.25 20.9925 124.25 20.3125 124.25 C15.27212432 117.13636635 12.06532274 109.45677203 9.3125 101.25 C7.83698498 97.31289407 6.48286347 94.11842409 3.3125 91.25 C3.3125 90.59 3.3125 89.93 3.3125 89.25 C2.6525 89.04375 1.9925 88.8375 1.3125 88.625 C-11.61320812 82.70071711 -17.62301799 71.07591948 -22.84765625 58.4453125 C-28.15793306 43.86729022 -32.90055281 21.89613694 -26.7265625 6.98046875 C-24.20695234 2.78427589 -20.97876287 0.77147155 -16.4375 -1.0625 C-4.88443451 -3.18056201 -4.88443451 -3.18056201 0 0 Z M78.9375 87.8125 C76.96034318 90.26503412 76.96034318 90.26503412 77.4375 93.875 C78.01990714 97.29542055 78.01990714 97.29542055 80.3125 99.25 C83.72788144 99.83369443 83.72788144 99.83369443 87.3125 99.25 C89.95176358 97.20118716 89.95176358 97.20118716 91.3125 94.25 C91.3125 91.00429392 90.81373855 89.76913992 88.5625 87.4375 C84.78219518 85.44233912 82.52298586 85.45362772 78.9375 87.8125 Z " fill="#000000" transform="translate(66.6875,8.75)"/>
<path d="M0 0 C4.18526786 2.31026786 4.18526786 2.31026786 5.953125 4.078125 C5.953125 5.068125 5.953125 6.058125 5.953125 7.078125 C6.613125 7.078125 7.273125 7.078125 7.953125 7.078125 C11.91464572 13.93703454 11.81775283 20.33725885 10.953125 28.078125 C8.94117251 34.2429538 5.31106378 38.5418854 -0.046875 42.078125 C-7.41768736 44.99863556 -14.89575668 45.17253939 -22.19921875 42.05078125 C-27.84831338 39.07694496 -31.57891575 34.92298887 -34.046875 29.078125 C-34.62767116 26.26412673 -34.71605624 23.57071329 -34.671875 20.703125 C-34.662771 19.95579102 -34.65366699 19.20845703 -34.64428711 18.43847656 C-34.41898575 13.03359696 -33.45864435 9.10008449 -29.96875 4.8125 C-21.05628455 -3.23045662 -10.78167013 -5.35313692 0 0 Z M-14.046875 9.078125 C-14.046875 11.718125 -14.046875 14.358125 -14.046875 17.078125 C-16.686875 17.078125 -19.326875 17.078125 -22.046875 17.078125 C-22.42906267 18.73427157 -22.76082602 20.40269524 -23.046875 22.078125 C-22.06419641 23.28373684 -22.06419641 23.28373684 -20.19921875 23.17578125 C-18.1484375 23.14322917 -16.09765625 23.11067708 -14.046875 23.078125 C-14.046875 26.048125 -14.046875 29.018125 -14.046875 32.078125 C-12.396875 32.078125 -10.746875 32.078125 -9.046875 32.078125 C-9.046875 29.108125 -9.046875 26.138125 -9.046875 23.078125 C-6.406875 23.078125 -3.766875 23.078125 -1.046875 23.078125 C-0.03576407 20.02899272 -0.03576407 20.02899272 -1.046875 17.078125 C-3.686875 17.078125 -6.326875 17.078125 -9.046875 17.078125 C-9.046875 14.438125 -9.046875 11.798125 -9.046875 9.078125 C-10.696875 9.078125 -12.346875 9.078125 -14.046875 9.078125 Z " fill="#000000" transform="translate(161.046875,39.921875)"/>
<path d="M0 0 C2.62269503 1.40848437 4.68526537 2.91353417 6.625 5.1875 C6.5625 7.1875 6.5625 7.1875 5.625 9.1875 C2.30357143 12.1875 2.30357143 12.1875 -0.375 12.1875 C-0.375 11.5275 -0.375 10.8675 -0.375 10.1875 C-4.31106919 7.56345387 -7.80090939 7.82447694 -12.375 8.1875 C-14.55000647 9.19238226 -14.55000647 9.19238226 -15.375 11.1875 C-15.13046876 14.52942692 -14.76956443 15.79293557 -12.375 18.1875 C-10.66474245 18.86252703 -8.93155804 19.48034545 -7.1875 20.0625 C3.59064617 23.8906489 3.59064617 23.8906489 7.5625 28.375 C9.30620709 32.99069524 9.6174975 37.54084001 7.86328125 42.21875 C5.32114732 46.96138722 2.71298017 49.2858722 -2.125 51.375 C-10.01513935 53.34753484 -16.32064637 52.14423008 -23.375 48.1875 C-25.59374353 46.28642892 -26.77395662 44.69580129 -28.375 42.1875 C-28.375 41.1975 -28.375 40.2075 -28.375 39.1875 C-26.625 37.4375 -26.625 37.4375 -24.375 36.1875 C-22.125 36.5 -22.125 36.5 -20.375 37.1875 C-20.375 37.8475 -20.375 38.5075 -20.375 39.1875 C-16.06199314 41.60278384 -11.54518963 43.7793699 -6.625 42.4375 C-2.7064702 40.49682923 -2.7064702 40.49682923 -0.6875 36.875 C-1.51058781 33.65747492 -2.16614894 33.32405148 -4.875 31.5625 C-7.66641219 29.97233045 -10.3957467 28.76788613 -13.4375 27.75 C-17.84666305 26.22509183 -21.26163748 23.65280784 -24.375 20.1875 C-26.04509208 15.17722375 -25.95292698 10.85706683 -24.25 5.9375 C-18.69094601 -2.21577919 -8.65518502 -4.19160532 0 0 Z " fill="#000000" transform="translate(207.375,27.8125)"/>
<path d="M0 0 C2.3046875 1.55078125 2.3046875 1.55078125 4 3 C4.33 2.01 4.66 1.02 5 0 C7.33294775 -0.04241723 9.66702567 -0.04092937 12 0 C13.78830448 1.78830448 13.12848711 4.19581152 13.13894653 6.57641602 C13.1369223 7.35557373 13.13489807 8.13473145 13.1328125 8.9375 C13.13376923 9.732771 13.13472595 10.52804199 13.13571167 11.34741211 C13.13639343 13.0320646 13.13453943 14.71671971 13.13037109 16.40136719 C13.12502275 18.98899197 13.13031619 21.57644316 13.13671875 24.1640625 C13.13605797 25.79687539 13.1347768 27.42968816 13.1328125 29.0625 C13.13483673 29.84165771 13.13686096 30.62081543 13.13894653 31.42358398 C13.11495105 36.88504895 13.11495105 36.88504895 12 38 C8.5625 38.1875 8.5625 38.1875 5 38 C4.34 37.34 3.68 36.68 3 36 C2.154375 36.495 1.30875 36.99 0.4375 37.5 C-4.73539777 39.75726448 -8.29800357 39.55755056 -13.625 37.8125 C-18.82602011 35.01935957 -22.36090968 31.70419515 -24.4921875 26.08203125 C-26.15319788 19.27188871 -25.74732386 12.74014515 -22.19921875 6.65234375 C-16.71675137 -0.90167482 -8.6161228 -2.11848564 0 0 Z M-14.0625 9.9375 C-16.6076595 13.96049405 -17.42954907 17.25064608 -17 22 C-15.99922436 24.84876875 -14.85347497 26.52870004 -13 29 C-9.28248383 30.23917206 -5.8626817 30.54318961 -2 30 C1.06048212 28.20363006 2.57072503 26.72196245 4.375 23.6875 C5.56700422 18.56188187 4.61867609 15.09765113 2.0625 10.5625 C-1.70038517 7.41396343 -3.83005354 7.16374063 -8.62109375 7.4921875 C-11.24806976 7.90933626 -11.24806976 7.90933626 -14.0625 9.9375 Z " fill="#000000" transform="translate(236,100)"/>
<path d="M0 0 C0.91845703 0.433125 0.91845703 0.433125 1.85546875 0.875 C2.92796875 1.32875 4.00046875 1.7825 5.10546875 2.25 C6.09546875 1.59 7.08546875 0.93 8.10546875 0.25 C10.41546875 0.58 12.72546875 0.91 15.10546875 1.25 C15.10546875 13.46 15.10546875 25.67 15.10546875 38.25 C12.46546875 38.25 9.82546875 38.25 7.10546875 38.25 C6.44546875 37.26 5.78546875 36.27 5.10546875 35.25 C4.63109375 35.724375 4.15671875 36.19875 3.66796875 36.6875 C-0.6220909 39.30339003 -5.10834054 39.67981163 -10.046875 38.91796875 C-15.9304585 37.16757443 -18.76685835 33.34734926 -21.89453125 28.25 C-23.3568334 25.32539571 -23.10361852 22.69347176 -23.14453125 19.4375 C-23.1703125 18.21417969 -23.19609375 16.99085937 -23.22265625 15.73046875 C-22.65086727 9.66542139 -19.34992796 6.18732732 -14.89453125 2.25 C-10.11028915 -0.76615263 -5.49116483 -2.17382195 0 0 Z M-11.95703125 10.1875 C-14.49971899 14.20658707 -15.18612027 17.5179268 -14.89453125 22.25 C-13.7533714 25.55335745 -12.89187796 27.46637044 -10.14453125 29.625 C-5.84885793 30.81824259 -2.25323357 30.83671236 1.85546875 29.0625 C5.36891211 26.23222618 6.87648512 23.7874615 7.54296875 19.3125 C6.8697652 14.60007516 4.41446108 11.55899233 1.10546875 8.25 C-3.80523236 7.42430689 -7.71649506 7.5047118 -11.95703125 10.1875 Z " fill="#000000" transform="translate(276.89453125,99.75)"/>
<path d="M0 0 C0.99 0.66 1.98 1.32 3 2 C3.66 1.34 4.32 0.68 5 0 C8.5625 -0.1875 8.5625 -0.1875 12 0 C13 1 13 1 13.11352539 4.41821289 C13.11336628 5.93636988 13.10767226 7.45453229 13.09765625 8.97265625 C13.0962413 9.77029892 13.09482635 10.56794159 13.09336853 11.38975525 C13.08775316 13.94737435 13.07519812 16.50490718 13.0625 19.0625 C13.05748698 20.79231645 13.05292373 22.52213426 13.04882812 24.25195312 C13.03777875 28.50133553 13.02050386 32.75065312 13 37 C10.03 37 7.06 37 4 37 C4 36.34 4 35.68 4 35 C3.236875 35.495 2.47375 35.99 1.6875 36.5 C-4.31617745 38.94217388 -10.23254689 38.92248437 -16.375 36.875 C-21.46970169 33.23592736 -24.64957991 29.13827316 -26 23 C-26.56254786 16.02440657 -25.62394097 10.71724971 -21.546875 4.94140625 C-15.60123293 -1.48247224 -8.18827545 -1.09759801 0 0 Z M-15 11 C-17.38621552 14.46386124 -18.01149219 16.34494544 -17.9375 20.5625 C-16.71480399 25.04571869 -14.87197154 27.57988366 -11.1875 30.375 C-7.78063256 31.3483907 -5.40708385 30.89660101 -2 30 C1.11905047 27.42339309 2.7181368 25.8455896 4 22 C4.36795288 17.03263608 4.2446074 13.89352888 1 10 C-5.40532525 6.04777804 -9.14971676 6.26998376 -15 11 Z " fill="#000000" transform="translate(328,41)"/>
<path d="M0 0 C4.68002015 6.19786452 5 8.86337069 5 17 C-4.57 17 -14.14 17 -24 17 C-21.49796175 22.81138063 -21.49796175 22.81138063 -17 26 C-11.87595712 26.76870685 -11.87595712 26.76870685 -7.32421875 24.83984375 C-6.82535156 24.37707031 -6.32648438 23.91429688 -5.8125 23.4375 C-3 21 -3 21 -0.25 21.125 C2 22 2 22 4 23 C3.52591957 27.26672384 1.11692878 29.2455048 -2 32 C-7.78174829 35.32243613 -13.78052583 35.57516861 -20.1875 34 C-25.24913742 32.28392386 -28.25322958 29.5470186 -31 25 C-33.50274182 19.69141613 -33.78651544 14.78129388 -33 9 C-30.79864543 3.39741089 -26.96832701 -0.72090417 -22 -4 C-14.13134239 -6.07851333 -6.2674999 -5.39296503 0 0 Z M-21 6 C-22.485 8.475 -22.485 8.475 -24 11 C-17.4 11 -10.8 11 -4 11 C-6.17076354 5.49243935 -6.17076354 5.49243935 -11 3 C-15.22719001 2.3659215 -17.63478534 3.43180986 -21 6 Z " fill="#000000" transform="translate(253,45)"/>
<path d="M0 0 C2.64 0 5.28 0 8 0 C9 1 9 1 9.09765625 4.59765625 C9.0909822 6.08596867 9.07902183 7.57426432 9.0625 9.0625 C9.05798828 9.82111328 9.05347656 10.57972656 9.04882812 11.36132812 C9.0370068 13.24091871 9.01907078 15.12046899 9 17 C9.8971875 16.66871094 10.794375 16.33742188 11.71875 15.99609375 C16.61206991 14.51062164 21.23642231 14.53313286 25.83984375 16.9765625 C29.60608015 19.8311671 30.82580675 22.54883189 32 27 C32.22705078 30.15966797 32.22705078 30.15966797 32.1953125 33.4921875 C32.18886719 34.69101563 32.18242187 35.88984375 32.17578125 37.125 C32.15902344 38.3625 32.14226562 39.6 32.125 40.875 C32.11597656 42.13570312 32.10695313 43.39640625 32.09765625 44.6953125 C32.07415808 47.7970704 32.04130334 50.89843652 32 54 C25.84765625 54.09765625 25.84765625 54.09765625 24 54 C23 53 23 53 22.91821289 51.16162109 C22.9361792 50.37352051 22.95414551 49.58541992 22.97265625 48.7734375 C22.99102539 47.47212891 22.99102539 47.47212891 23.00976562 46.14453125 C23.04447728 44.32152655 23.08342714 42.4985968 23.12695312 40.67578125 C23.19351701 35.35850117 22.82125716 31.01349756 21 26 C19.96593327 24.74050951 19.96593327 24.74050951 17.71484375 24.90234375 C16.79832031 24.91394531 15.88179688 24.92554687 14.9375 24.9375 C14.01839844 24.94652344 13.09929687 24.95554687 12.15234375 24.96484375 C11.44207031 24.97644531 10.73179687 24.98804687 10 25 C8.74150943 30.77135911 8.92391427 36.44248595 9 42.3125 C9.02537878 44.30854113 9.04645602 46.30464326 9.0625 48.30078125 C9.07410156 49.17903564 9.08570313 50.05729004 9.09765625 50.9621582 C9 53 9 53 8 54 C5.36 54 2.72 54 0 54 C0 36.18 0 18.36 0 0 Z " fill="#000000" transform="translate(325,84)"/>
<path d="M0 0 C2.64 0 5.28 0 8 0 C9.13480527 3.60993172 9.10015767 6.9842327 9.0625 10.75 C9.05347656 11.92046875 9.04445313 13.0909375 9.03515625 14.296875 C9.02355469 15.18890625 9.01195312 16.0809375 9 17 C9.99 16.67 10.98 16.34 12 16 C23.496014 14.93836282 23.496014 14.93836282 28.1875 18.25 C31.19060843 22.80644037 32.25894077 25.69998127 32.44921875 31.2265625 C32.49240234 32.4228125 32.53558594 33.6190625 32.58007812 34.8515625 C32.61552734 36.09679688 32.65097656 37.34203125 32.6875 38.625 C32.73455078 39.87796875 32.78160156 41.1309375 32.83007812 42.421875 C33.13656044 51.72687912 33.13656044 51.72687912 32 54 C29.36 54 26.72 54 24 54 C23.98541748 53.26362305 23.97083496 52.52724609 23.95581055 51.76855469 C23.88128889 48.42850996 23.78464127 45.08946019 23.6875 41.75 C23.66494141 40.59113281 23.64238281 39.43226562 23.61914062 38.23828125 C23.5659668 36.56572266 23.5659668 36.56572266 23.51171875 34.859375 C23.48553467 33.83295898 23.45935059 32.80654297 23.43237305 31.74902344 C22.94422174 28.64536241 22.15959599 27.25037907 20 25 C17.21879562 24.00161894 15.65598516 23.81257567 12.8125 24.625 C10.38023872 26.47016373 9.94326878 28.11446555 9 31 C8.74391255 33.58900435 8.74391255 33.58900435 8.83984375 36.265625 C8.85080078 37.23757812 8.86175781 38.20953125 8.87304688 39.2109375 C8.89431641 40.21382812 8.91558594 41.21671875 8.9375 42.25 C8.97176504 44.25513921 9.00194365 46.2603539 9.02734375 48.265625 C9.04531006 49.15024414 9.06327637 50.03486328 9.08178711 50.94628906 C9 53 9 53 8 54 C5.36 54 2.72 54 0 54 C0 36.18 0 18.36 0 0 Z " fill="#000000" transform="translate(375,25)"/>
<path d="M0 0 C2.64 0 5.28 0 8 0 C8 5.94 8 11.88 8 18 C8.99 17.34 9.98 16.68 11 16 C16.55279903 15.2957064 23.0283722 14.52055039 27.6875 18.125 C31.55811753 22.93711909 32.25313308 27.42102673 32.1953125 33.4921875 C32.18886719 34.69101562 32.18242187 35.88984375 32.17578125 37.125 C32.15902344 38.3625 32.14226562 39.6 32.125 40.875 C32.11597656 42.13570312 32.10695313 43.39640625 32.09765625 44.6953125 C32.07415808 47.7970704 32.04130334 50.89843652 32 54 C29.36 54 26.72 54 24 54 C23.98541748 53.29915283 23.97083496 52.59830566 23.95581055 51.8762207 C23.88114513 48.68776991 23.78454525 45.50034487 23.6875 42.3125 C23.66494141 41.20970703 23.64238281 40.10691406 23.61914062 38.97070312 C23.58369141 37.90400391 23.54824219 36.83730469 23.51171875 35.73828125 C23.48553467 34.75899658 23.45935059 33.77971191 23.43237305 32.77075195 C22.92944136 29.54784301 21.92104632 27.61913383 20 25 C17.65127469 23.83022506 17.65127469 23.83022506 15 24 C12.21491684 25.13749195 12.21491684 25.13749195 10 27 C8.98412022 30.04763934 8.80195594 32.34718967 8.68359375 35.54296875 C8.64169922 36.61611328 8.59980469 37.68925781 8.55664062 38.79492188 C8.49766602 40.47424805 8.49766602 40.47424805 8.4375 42.1875 C8.39431641 43.31865234 8.35113281 44.44980469 8.30664062 45.61523438 C8.20050901 48.41003354 8.09845615 51.20492162 8 54 C5.36 54 2.72 54 0 54 C0 36.18 0 18.36 0 0 Z " fill="#000000" transform="translate(264,25)"/>
<path d="M0 0 C1.99609375 0.984375 1.99609375 0.984375 3.5625 2.25 C4.28515625 4.390625 4.28515625 4.390625 4.5625 6.25 C2.9375 7.875 2.9375 7.875 0.5625 9.25 C-1.45051483 8.62372872 -3.44950182 7.95164642 -5.4375 7.25 C-9.20492779 7.54891234 -9.20492779 7.54891234 -12.4375 8.25 C-11.77697563 11.2554227 -11.77697563 11.2554227 -9.87109375 12.29321289 C-9.21238281 12.5999292 -8.55367187 12.90664551 -7.875 13.22265625 C-7.16085938 13.56490234 -6.44671875 13.90714844 -5.7109375 14.25976562 C-4.96070313 14.60716797 -4.21046875 14.95457031 -3.4375 15.3125 C-1.95576813 16.00626621 -0.47645991 16.70523992 1 17.41015625 C1.98806641 17.86853882 1.98806641 17.86853882 2.99609375 18.33618164 C4.5625 19.25 4.5625 19.25 5.5625 21.25 C6.15273109 25.40403149 6.61982377 29.52453027 4.36328125 33.20703125 C0.39116016 37.31922714 -2.62861188 38.13329754 -8.3125 38.5 C-13.8846793 38.40695805 -17.26843397 36.34282259 -21.3125 32.5625 C-22.01375 31.799375 -22.715 31.03625 -23.4375 30.25 C-22.38875002 27.62812506 -21.78818687 26.45628639 -19.3125 25 C-18.69375 24.7525 -18.075 24.505 -17.4375 24.25 C-16.921875 24.889375 -16.40625 25.52875 -15.875 26.1875 C-12.74877564 28.83276676 -10.47237265 29.02584041 -6.4375 29.25 C-5.7775 28.92 -5.1175 28.59 -4.4375 28.25 C-4.5184018 25.79819022 -4.5184018 25.79819022 -5.4375 23.25 C-7.82819454 21.91395962 -7.82819454 21.91395962 -10.75 21.1875 C-15.07302293 19.93503541 -17.49607509 18.70297707 -20.4375 15.25 C-21.96964888 12.18570224 -21.66688548 9.6334358 -21.4375 6.25 C-20.03784869 2.82863014 -18.81898487 1.50728049 -15.75 -0.5625 C-9.94451341 -2.64371218 -5.53116464 -2.50337147 0 0 Z " fill="#000000" transform="translate(202.4375,100.75)"/>
<path d="M0 0 C2.97 0 5.94 0 9 0 C9 3.63 9 7.26 9 11 C10.629375 10.979375 12.25875 10.95875 13.9375 10.9375 C15.62499341 10.91613932 17.31391034 10.92794489 19 11 C20 12 20 12 20.0625 15.5625 C20.041875 16.696875 20.02125 17.83125 20 19 C16.37 19 12.74 19 9 19 C9.33 26.26 9.66 33.52 10 41 C14.455 40.505 14.455 40.505 19 40 C20 41 20 41 20.0625 44.5625 C20.041875 45.696875 20.02125 46.83125 20 48 C11.57303399 50.65611854 11.57303399 50.65611854 7.125 48.875 C2.98963908 46.39378345 1.50783188 44.52349564 0 40 C-0.08143855 38.37280518 -0.1075302 36.74248281 -0.09765625 35.11328125 C-0.09443359 34.17548828 -0.09121094 33.23769531 -0.08789062 32.27148438 C-0.07951172 31.29501953 -0.07113281 30.31855469 -0.0625 29.3125 C-0.05798828 28.32443359 -0.05347656 27.33636719 -0.04882812 26.31835938 C-0.03704303 23.87884526 -0.02059011 21.43945311 0 19 C-1.65 19 -3.3 19 -5 19 C-5 16.69 -5 14.38 -5 12 C-3.35 11.67 -1.7 11.34 0 11 C0 7.37 0 3.74 0 0 Z " fill="#000000" transform="translate(350,30)"/>
<path d="M0 0 C2.97 0 5.94 0 9 0 C9 3.63 9 7.26 9 11 C11.1965625 10.9690625 11.1965625 10.9690625 13.4375 10.9375 C14.95832518 10.91607993 16.48071962 10.92820036 18 11 C19 12 19 12 19.0625 15.5625 C19.041875 16.696875 19.02125 17.83125 19 19 C15.7 19 12.4 19 9 19 C9 25.93 9 32.86 9 40 C12.3 40 15.6 40 19 40 C19.33 42.64 19.66 45.28 20 48 C15.97345467 50.2081055 12.59381977 50.28615537 8.15625 49.6796875 C4.3795291 48.48919939 3.10267258 46.28542591 1 43 C0.01956036 40.05868109 -0.11621202 38.17498335 -0.09765625 35.11328125 C-0.09443359 34.17548828 -0.09121094 33.23769531 -0.08789062 32.27148438 C-0.07951172 31.29501953 -0.07113281 30.31855469 -0.0625 29.3125 C-0.05798828 28.32443359 -0.05347656 27.33636719 -0.04882812 26.31835938 C-0.03704303 23.87884526 -0.02059011 21.43945311 0 19 C-1.65 18.67 -3.3 18.34 -5 18 C-4.67 15.69 -4.34 13.38 -4 11 C-2.02 11.495 -2.02 11.495 0 12 C0 8.04 0 4.08 0 0 Z " fill="#000000" transform="translate(300,89)"/>
<path d="M0 0 C2.64 0 5.28 0 8 0 C8 12.54 8 25.08 8 38 C5.36 38 2.72 38 0 38 C0 25.46 0 12.92 0 0 Z " fill="#000000" transform="translate(365,100)"/>
<path d="M0 0 C3.625 0.375 3.625 0.375 7 1 C7.33 3.31 7.66 5.62 8 8 C6.3125 9.5625 6.3125 9.5625 4 11 C1.375 10.875 1.375 10.875 -1 10 C-3 7 -3 7 -2.75 4.4375 C-2 2 -2 2 0 0 Z " fill="#000000" transform="translate(366,84)"/>
<path d="M0 0 C2.4375 0.75 2.4375 0.75 4.4375 2.75 C4.80237512 5.59602594 4.83949375 7.1364306 3.25 9.5625 C0.76512734 11.19052002 -0.64961432 11.25975499 -3.5625 10.75 C-5.4375 9.0625 -5.4375 9.0625 -6.5625 6.75 C-6.4375 4.125 -6.4375 4.125 -5.5625 1.75 C-2.5625 -0.25 -2.5625 -0.25 0 0 Z " fill="#000000" transform="translate(151.5625,96.25)"/>
</svg>
